<svg width="1600" height="1000" viewBox="0 0 1600 1000" fill="none" xmlns="http://www.w3.org/2000/svg">
  <defs>
    <linearGradient id="bg" x1="0" y1="0" x2="1600" y2="1000" gradientUnits="userSpaceOnUse">
      <stop stop-color="#0B1326" />
      <stop offset="1" stop-color="#172554" />
    </linearGradient>
    <linearGradient id="card" x1="0" y1="0" x2="1" y2="1">
      <stop stop-color="#1E293B" stop-opacity="0.82" />
      <stop offset="1" stop-color="#0F172A" stop-opacity="0.62" />
    </linearGradient>
    <linearGradient id="accent" x1="0" y1="0" x2="1" y2="1">
      <stop stop-color="#06B6D4" />
      <stop offset="1" stop-color="#3B82F6" />
    </linearGradient>
  </defs>

  <rect width="1600" height="1000" fill="url(#bg)" />
  <circle cx="230" cy="180" r="220" fill="#0EA5E9" fill-opacity="0.12" />
  <circle cx="1390" cy="840" r="260" fill="#22D3EE" fill-opacity="0.1" />

  <g opacity="0.92">
    <rect x="140" y="170" width="360" height="220" rx="20" fill="url(#card)" stroke="#38BDF8" stroke-opacity="0.25" />
    <rect x="176" y="214" width="130" height="14" rx="7" fill="#93C5FD" fill-opacity="0.72" />
    <rect x="176" y="246" width="286" height="10" rx="5" fill="#CBD5E1" fill-opacity="0.26" />
    <rect x="176" y="269" width="238" height="10" rx="5" fill="#CBD5E1" fill-opacity="0.2" />
    <rect x="176" y="300" width="42" height="42" rx="12" fill="url(#accent)" />
    <path d="M190 322L201 333L226 308" stroke="#E0F2FE" stroke-width="6" stroke-linecap="round" stroke-linejoin="round" />
    <rect x="236" y="311" width="212" height="12" rx="6" fill="#E2E8F0" fill-opacity="0.42" />
  </g>

  <g opacity="0.9">
    <rect x="580" y="260" width="420" height="250" rx="22" fill="url(#card)" stroke="#60A5FA" stroke-opacity="0.23" />
    <rect x="618" y="304" width="188" height="16" rx="8" fill="#BFDBFE" fill-opacity="0.72" />
    <rect x="618" y="336" width="342" height="10" rx="5" fill="#E2E8F0" fill-opacity="0.26" />
    <rect x="618" y="363" width="322" height="10" rx="5" fill="#E2E8F0" fill-opacity="0.2" />
    <rect x="618" y="406" width="340" height="78" rx="14" fill="#0B1122" fill-opacity="0.48" />
    <rect x="640" y="430" width="64" height="30" rx="8" fill="#0284C7" fill-opacity="0.76" />
    <rect x="719" y="430" width="108" height="12" rx="6" fill="#F8FAFC" fill-opacity="0.32" />
    <rect x="719" y="448" width="138" height="12" rx="6" fill="#F8FAFC" fill-opacity="0.22" />
  </g>

  <g opacity="0.86">
    <rect x="1090" y="160" width="340" height="520" rx="24" fill="url(#card)" stroke="#22D3EE" stroke-opacity="0.21" />
    <rect x="1128" y="208" width="180" height="16" rx="8" fill="#BAE6FD" fill-opacity="0.72" />
    <rect x="1128" y="245" width="262" height="10" rx="5" fill="#E2E8F0" fill-opacity="0.24" />

    <rect x="1128" y="286" width="264" height="92" rx="14" fill="#0B1122" fill-opacity="0.5" />
    <rect x="1146" y="313" width="38" height="38" rx="10" fill="#0EA5E9" fill-opacity="0.8" />
    <path d="M1156 332L1164 339L1177 322" stroke="#ECFEFF" stroke-width="5" stroke-linecap="round" stroke-linejoin="round" />
    <rect x="1196" y="317" width="172" height="12" rx="6" fill="#F8FAFC" fill-opacity="0.35" />

    <rect x="1128" y="394" width="264" height="92" rx="14" fill="#0B1122" fill-opacity="0.5" />
    <rect x="1146" y="421" width="38" height="38" rx="10" fill="#0891B2" fill-opacity="0.82" />
    <path d="M1156 440L1164 447L1177 430" stroke="#ECFEFF" stroke-width="5" stroke-linecap="round" stroke-linejoin="round" />
    <rect x="1196" y="425" width="150" height="12" rx="6" fill="#F8FAFC" fill-opacity="0.35" />

    <rect x="1128" y="502" width="264" height="92" rx="14" fill="#0B1122" fill-opacity="0.5" />
    <rect x="1146" y="529" width="38" height="38" rx="10" fill="#1D4ED8" fill-opacity="0.84" />
    <path d="M1156 548L1164 555L1177 538" stroke="#ECFEFF" stroke-width="5" stroke-linecap="round" stroke-linejoin="round" />
    <rect x="1196" y="533" width="160" height="12" rx="6" fill="#F8FAFC" fill-opacity="0.35" />
  </g>

  <rect x="0" y="0" width="1600" height="1000" fill="url(#bg)" fill-opacity="0.22" />
</svg>
